<svg width="60" height="60" viewBox="0 0 60 60" fill="none" xmlns="http://www.w3.org/2000/svg">
    <circle cx="30" cy="30" r="30" fill="#5B5F62" />
    <path d="M38.1427 22.7144L23.5713 37.2858" stroke="white" stroke-width="3"
        stroke-linecap="round" stroke-linejoin="round" />
    <path d="M23.5713 22.7144L38.1427 37.2858" stroke="white" stroke-width="3"
        stroke-linecap="round" stroke-linejoin="round" />
    <circle cx="30" cy="30" r="30" fill="#E8E8E8" />
    <path
        d="M29.9998 27.0002V31.0002M29.9998 35.0002H30.0098M28.2898 21.8602L19.8198 36.0002C19.6451 36.3026 19.5527 36.6455 19.5518 36.9947C19.5508 37.3439 19.6413 37.6873 19.8142 37.9907C19.9871 38.2941 20.2365 38.547 20.5375 38.7241C20.8385 38.9012 21.1806 38.9964 21.5298 39.0002H38.4698C38.819 38.9964 39.1611 38.9012 39.4621 38.7241C39.7631 38.547 40.0124 38.2941 40.1854 37.9907C40.3583 37.6873 40.4488 37.3439 40.4478 36.9947C40.4468 36.6455 40.3544 36.3026 40.1798 36.0002L31.7098 21.8602C31.5315 21.5663 31.2805 21.3233 30.981 21.1547C30.6814 20.9861 30.3435 20.8975 29.9998 20.8975C29.656 20.8975 29.3181 20.9861 29.0186 21.1547C28.7191 21.3233 28.468 21.5663 28.2898 21.8602Z"
        stroke="#5A5E61" stroke-width="2" stroke-linecap="round" stroke-linejoin="round" />
</svg>
